<svg width="10" height="12" viewBox="0 0 10 12" fill="none" xmlns="http://www.w3.org/2000/svg">
<path d="M7.90974 1H2.27064C1.97153 1 1.68466 1.11946 1.47315 1.3321C1.26165 1.54474 1.14282 1.83314 1.14282 2.13386V10.7161C1.14284 10.7657 1.15582 10.8145 1.18047 10.8575C1.20512 10.9005 1.24057 10.9362 1.28328 10.9612C1.32598 10.9861 1.37445 10.9993 1.42382 10.9994C1.4732 10.9996 1.52175 10.9867 1.56463 10.9621L4.53079 9.25848C4.70117 9.16064 4.89398 9.10918 5.09019 9.10918C5.2864 9.10918 5.47922 9.16064 5.64959 9.25848L8.61575 10.9627C8.65867 10.9873 8.70727 11.0002 8.7567 11C8.80612 10.9998 8.85462 10.9866 8.89735 10.9616C8.94007 10.9366 8.97551 10.9008 9.00012 10.8577C9.02473 10.8146 9.03764 10.7657 9.03756 10.7161V2.13386C9.03756 1.83314 8.91873 1.54474 8.70723 1.3321C8.49572 1.11946 8.20886 1 7.90974 1Z" stroke="#355587" stroke-width="1.05263" stroke-linecap="round" stroke-linejoin="round"/>
</svg>
