<svg width="13" height="8" viewBox="0 0 13 8" fill="none" xmlns="http://www.w3.org/2000/svg">
<path d="M9.14285 1H12.1429V4" stroke="white" stroke-width="1.28571" stroke-linecap="round" stroke-linejoin="round"/>
<path d="M0.999969 7.00002L4.25095 3.74904C4.33055 3.66942 4.42505 3.60627 4.52905 3.56318C4.63306 3.52009 4.74453 3.49791 4.85711 3.49791C4.96969 3.49791 5.08117 3.52009 5.18517 3.56318C5.28918 3.60627 5.38368 3.66942 5.46327 3.74904L6.82238 5.10814C6.90198 5.18776 6.99648 5.25091 7.10048 5.294C7.20449 5.33709 7.31596 5.35926 7.42854 5.35926C7.54112 5.35926 7.65259 5.33709 7.7566 5.294C7.86061 5.25091 7.95511 5.18776 8.0347 5.10814L11.7143 1.42859" stroke="white" stroke-width="1.28571" stroke-linecap="round" stroke-linejoin="round"/>
</svg>
